<svg width="14" height="14" viewBox="0 0 14 14" fill="none" xmlns="http://www.w3.org/2000/svg">
<path d="M12.9999 7.99997H7.99994V13C7.99994 13.55 7.54994 14 6.99994 14C6.44994 14 5.99994 13.55 5.99994 13V7.99997H0.999939C0.449939 7.99997 -6.10352e-05 7.54997 -6.10352e-05 6.99997C-6.10352e-05 6.44997 0.449939 5.99997 0.999939 5.99997H5.99994V0.999969C5.99994 0.449969 6.44994 -3.05176e-05 6.99994 -3.05176e-05C7.54994 -3.05176e-05 7.99994 0.449969 7.99994 0.999969V5.99997H12.9999C13.5499 5.99997 13.9999 6.44997 13.9999 6.99997C13.9999 7.54997 13.5499 7.99997 12.9999 7.99997Z" fill="#666666"/>
</svg>
