<svg width="129" height="24" viewBox="0 0 129 24" fill="none" xmlns="http://www.w3.org/2000/svg">
<path d="M39.4091 11.3778H36.1619C36.1449 11.1776 36.0746 11.005 35.951 10.8601C35.8274 10.7152 35.6676 10.6044 35.4716 10.5277C35.2798 10.4467 35.0668 10.4063 34.8324 10.4063C34.5298 10.4063 34.2699 10.4617 34.0526 10.5725C33.8352 10.6832 33.7287 10.8409 33.733 11.0455C33.7287 11.1903 33.7905 11.3246 33.9183 11.4482C34.0504 11.5717 34.304 11.6676 34.679 11.7358L36.6733 12.0938C37.679 12.277 38.4268 12.5859 38.9169 13.0206C39.4112 13.451 39.6605 14.0284 39.6648 14.7528C39.6605 15.4517 39.4517 16.059 39.0384 16.5746C38.6293 17.0859 38.0689 17.4823 37.3572 17.7635C36.6499 18.0405 35.8423 18.179 34.9347 18.179C33.4347 18.179 32.2607 17.8722 31.4126 17.2585C30.5689 16.6449 30.098 15.8352 30 14.8296H33.5028C33.5497 15.1406 33.7031 15.3814 33.9631 15.5519C34.2273 15.718 34.5597 15.8011 34.9602 15.8011C35.2841 15.8011 35.5504 15.7457 35.7592 15.635C35.9723 15.5242 36.081 15.3665 36.0852 15.1619C36.081 14.9744 35.9872 14.8253 35.804 14.7145C35.625 14.6037 35.3438 14.5142 34.9602 14.446L33.2216 14.1392C32.2202 13.9645 31.4702 13.6321 30.9716 13.1421C30.473 12.652 30.2259 12.0213 30.2301 11.25C30.2259 10.5682 30.4048 9.99078 30.767 9.51776C31.1335 9.04049 31.6555 8.67828 32.3331 8.43112C33.0149 8.1797 33.8224 8.05399 34.7557 8.05399C36.1747 8.05399 37.2933 8.34802 38.1115 8.93609C38.9339 9.52416 39.3665 10.3381 39.4091 11.3778Z" fill="black"/>
<path d="M45.7468 18.179C44.6815 18.179 43.7695 17.968 43.011 17.5462C42.2525 17.12 41.6708 16.5277 41.266 15.7692C40.8612 15.0064 40.6587 14.1222 40.6587 13.1165C40.6587 12.1108 40.8612 11.2287 41.266 10.4702C41.6708 9.70739 42.2525 9.11506 43.011 8.69319C43.7695 8.26705 44.6815 8.05399 45.7468 8.05399C46.7099 8.05399 47.543 8.2287 48.2461 8.57813C48.9535 8.9233 49.5011 9.41336 49.8889 10.0483C50.2766 10.679 50.4727 11.4205 50.4769 12.2727H47.2042C47.1573 11.7571 47.0082 11.3651 46.7567 11.0966C46.5096 10.8239 46.19 10.6875 45.7979 10.6875C45.4911 10.6875 45.2227 10.777 44.9925 10.956C44.7624 11.1307 44.5835 11.397 44.4556 11.755C44.3278 12.1087 44.2639 12.554 44.2639 13.0909C44.2639 13.6278 44.3278 14.0753 44.4556 14.4332C44.5835 14.7869 44.7624 15.0533 44.9925 15.2323C45.2227 15.407 45.4911 15.4943 45.7979 15.4943C46.0579 15.4943 46.288 15.4347 46.4883 15.3153C46.6886 15.1918 46.8505 15.0128 46.9741 14.7784C47.1019 14.5398 47.1786 14.25 47.2042 13.9091H50.4769C50.4641 14.7742 50.266 15.5284 49.8825 16.1719C49.4989 16.8111 48.9556 17.3054 48.2525 17.6548C47.5536 18.0043 46.7184 18.179 45.7468 18.179Z" fill="black"/>
<path d="M51.9327 18V8.18183H55.3588V10.0483H55.4611C55.6401 9.35796 55.9235 8.85299 56.3113 8.53339C56.7033 8.21379 57.1614 8.05399 57.6855 8.05399C57.839 8.05399 57.9902 8.06677 58.1394 8.09234C58.2928 8.11365 58.4398 8.14561 58.5804 8.18822V11.1989C58.4057 11.1392 58.1905 11.0945 57.9348 11.0646C57.6792 11.0348 57.4597 11.0199 57.2765 11.0199C56.9313 11.0199 56.6202 11.0987 56.3432 11.2564C56.0705 11.4098 55.8553 11.6271 55.6976 11.9084C55.54 12.1854 55.4611 12.5114 55.4611 12.8864V18H51.9327Z" fill="black"/>
<path d="M63.8794 18.179C62.8311 18.179 61.9277 17.9787 61.1692 17.5781C60.4149 17.1733 59.8333 16.5938 59.4242 15.8395C59.0194 15.081 58.8169 14.1733 58.8169 13.1165C58.8169 12.1023 59.0215 11.2159 59.4306 10.4574C59.8397 9.69887 60.4171 9.10867 61.1628 8.6868C61.9086 8.26492 62.7885 8.05399 63.8027 8.05399C64.5442 8.05399 65.2154 8.16904 65.8162 8.39916C66.4171 8.62927 66.9306 8.96379 67.3567 9.40271C67.7828 9.83737 68.111 10.3658 68.3411 10.9879C68.5712 11.6101 68.6863 12.3111 68.6863 13.0909V13.9091H59.9164V11.9659H65.4391C65.4348 11.6847 65.3624 11.4375 65.2218 11.2244C65.0854 11.0071 64.9 10.8388 64.6657 10.7195C64.4355 10.5959 64.1735 10.5341 63.8794 10.5341C63.5939 10.5341 63.3319 10.5959 63.0932 10.7195C62.8546 10.8388 62.6628 11.005 62.5179 11.218C62.3773 11.4311 62.3027 11.6804 62.2942 11.9659V14.0625C62.2942 14.3778 62.3603 14.6591 62.4924 14.9063C62.6245 15.1534 62.8141 15.3473 63.0613 15.4879C63.3084 15.6286 63.6067 15.6989 63.9561 15.6989C64.199 15.6989 64.4206 15.6648 64.6209 15.5966C64.8255 15.5284 65.0002 15.4304 65.1451 15.3026C65.29 15.1705 65.3965 15.0128 65.4647 14.8296H68.6863C68.5755 15.5114 68.3134 16.1037 67.9 16.6065C67.4867 17.1051 66.9391 17.4929 66.2573 17.7699C65.5797 18.0426 64.7871 18.179 63.8794 18.179Z" fill="black"/>
<path d="M74.8306 18.179C73.7823 18.179 72.8789 17.9787 72.1204 17.5781C71.3661 17.1733 70.7844 16.5938 70.3754 15.8395C69.9705 15.081 69.7681 14.1733 69.7681 13.1165C69.7681 12.1023 69.9727 11.2159 70.3817 10.4574C70.7908 9.69887 71.3683 9.10867 72.114 8.6868C72.8597 8.26492 73.7397 8.05399 74.7539 8.05399C75.4954 8.05399 76.1665 8.16904 76.7674 8.39916C77.3683 8.62927 77.8817 8.96379 78.3079 9.40271C78.734 9.83737 79.0621 10.3658 79.2923 10.9879C79.5224 11.6101 79.6374 12.3111 79.6374 13.0909V13.9091H70.8675V11.9659H76.3903C76.386 11.6847 76.3136 11.4375 76.1729 11.2244C76.0366 11.0071 75.8512 10.8388 75.6168 10.7195C75.3867 10.5959 75.1246 10.5341 74.8306 10.5341C74.5451 10.5341 74.283 10.5959 74.0444 10.7195C73.8058 10.8388 73.614 11.005 73.4691 11.218C73.3285 11.4311 73.2539 11.6804 73.2454 11.9659V14.0625C73.2454 14.3778 73.3114 14.6591 73.4435 14.9063C73.5756 15.1534 73.7653 15.3473 74.0124 15.4879C74.2596 15.6286 74.5579 15.6989 74.9073 15.6989C75.1502 15.6989 75.3718 15.6648 75.5721 15.5966C75.7766 15.5284 75.9513 15.4304 76.0962 15.3026C76.2411 15.1705 76.3477 15.0128 76.4158 14.8296H79.6374C79.5266 15.5114 79.2646 16.1037 78.8512 16.6065C78.4379 17.1051 77.8903 17.4929 77.2085 17.7699C76.5309 18.0426 75.7383 18.179 74.8306 18.179Z" fill="black"/>
<path d="M84.6056 12.4773V18H81.0772V8.18183H84.4267V10.0483H84.5289C84.742 9.42614 85.117 8.93822 85.6539 8.58453C86.1951 8.23083 86.8258 8.05399 87.546 8.05399C88.2406 8.05399 88.8436 8.21379 89.3549 8.53339C89.8706 8.84873 90.269 9.28339 90.5502 9.83737C90.8358 10.3913 90.9764 11.0242 90.9721 11.7358V18H87.4437V12.4773C87.448 11.9915 87.3244 11.6101 87.073 11.3331C86.8258 11.0561 86.4806 10.9176 86.0375 10.9176C85.7477 10.9176 85.4941 10.9815 85.2768 11.1094C85.0637 11.233 84.8997 11.4119 84.7846 11.6463C84.6696 11.8764 84.6099 12.1534 84.6056 12.4773Z" fill="black"/>
<path d="M93 18V8.18185H94.4461V9.66481H94.5476C94.7252 9.17901 95.0465 8.78484 95.5116 8.48228C95.9767 8.17972 96.5011 8.02844 97.0846 8.02844C97.1945 8.02844 97.3319 8.03057 97.4968 8.03484C97.6617 8.0391 97.7865 8.04549 97.871 8.05401V9.5881C97.8203 9.57532 97.704 9.55614 97.5222 9.53057C97.3446 9.50074 97.1564 9.48583 96.9577 9.48583C96.4841 9.48583 96.0613 9.58597 95.6892 9.78626C95.3213 9.98228 95.0296 10.255 94.814 10.6044C94.6025 10.9496 94.4968 11.3438 94.4968 11.787V18H93Z" fill="black" fill-opacity="0.5"/>
<path d="M103.433 18.2046C102.495 18.2046 101.685 17.9958 101.004 17.5782C100.328 17.1563 99.8055 16.5682 99.4376 15.814C99.074 15.0554 98.8922 14.1733 98.8922 13.1676C98.8922 12.162 99.074 11.2756 99.4376 10.5086C99.8055 9.73725 100.317 9.1364 100.973 8.706C101.632 8.27134 102.402 8.05401 103.281 8.05401C103.789 8.05401 104.29 8.13924 104.784 8.30969C105.279 8.48015 105.729 8.75714 106.135 9.14066C106.541 9.51992 106.865 10.0228 107.106 10.6492C107.347 11.2756 107.467 12.0469 107.467 12.9631V13.6023H99.9577V12.2983H105.945C105.945 11.7444 105.835 11.25 105.615 10.8154C105.4 10.3807 105.091 10.0377 104.689 9.78626C104.292 9.53483 103.822 9.40912 103.281 9.40912C102.685 9.40912 102.169 9.55827 101.734 9.85657C101.302 10.1506 100.97 10.5341 100.738 11.0071C100.505 11.4801 100.389 11.9873 100.389 12.5284V13.3978C100.389 14.1392 100.516 14.7678 100.77 15.2834C101.027 15.7948 101.385 16.1847 101.841 16.4532C102.298 16.7174 102.829 16.8495 103.433 16.8495C103.827 16.8495 104.182 16.7941 104.499 16.6833C104.82 16.5682 105.097 16.3978 105.33 16.1719C105.562 15.9418 105.742 15.6563 105.869 15.3154L107.315 15.7245C107.163 16.2188 106.907 16.6534 106.548 17.0284C106.188 17.3992 105.744 17.689 105.216 17.8978C104.687 18.1023 104.093 18.2046 103.433 18.2046Z" fill="black" fill-opacity="0.5"/>
<path d="M109.744 21.6819V8.18185H111.19V9.74151H111.368C111.478 9.57106 111.63 9.35373 111.825 9.08952C112.023 8.82106 112.307 8.58242 112.674 8.37361C113.047 8.16055 113.55 8.05401 114.184 8.05401C115.004 8.05401 115.727 8.26069 116.353 8.67404C116.979 9.08739 117.467 9.67333 117.818 10.4319C118.169 11.1904 118.345 12.0853 118.345 13.1165C118.345 14.1563 118.169 15.0576 117.818 15.8203C117.467 16.5789 116.981 17.1669 116.359 17.5846C115.738 17.9979 115.021 18.2046 114.209 18.2046C113.584 18.2046 113.082 18.1002 112.706 17.8914C112.33 17.6783 112.04 17.4375 111.837 17.1691C111.634 16.8963 111.478 16.6705 111.368 16.4915H111.241V21.6819H109.744ZM111.216 13.0909C111.216 13.8324 111.323 14.4865 111.539 15.0533C111.755 15.6158 112.07 16.0569 112.484 16.3765C112.899 16.6918 113.406 16.8495 114.006 16.8495C114.632 16.8495 115.154 16.6833 115.573 16.3509C115.996 16.0142 116.313 15.5625 116.524 14.9958C116.74 14.4248 116.848 13.7898 116.848 13.0909C116.848 12.4006 116.742 11.7784 116.531 11.2245C116.323 10.6662 116.008 10.2252 115.586 9.90131C115.167 9.57319 114.641 9.40912 114.006 9.40912C113.397 9.40912 112.886 9.56467 112.471 9.87574C112.057 10.1826 111.744 10.613 111.533 11.1669C111.321 11.7167 111.216 12.358 111.216 13.0909Z" fill="black" fill-opacity="0.5"/>
<path d="M124.586 18.2046C123.706 18.2046 122.934 17.9936 122.271 17.5718C121.611 17.1499 121.095 16.5597 120.723 15.8012C120.355 15.0426 120.171 14.1563 120.171 13.1421C120.171 12.1194 120.355 11.2266 120.723 10.4638C121.095 9.70103 121.611 9.1087 122.271 8.68682C122.934 8.26495 123.706 8.05401 124.586 8.05401C125.465 8.05401 126.235 8.26495 126.894 8.68682C127.558 9.1087 128.074 9.70103 128.442 10.4638C128.814 11.2266 129 12.1194 129 13.1421C129 14.1563 128.814 15.0426 128.442 15.8012C128.074 16.5597 127.558 17.1499 126.894 17.5718C126.235 17.9936 125.465 18.2046 124.586 18.2046ZM124.586 16.8495C125.254 16.8495 125.803 16.6769 126.235 16.3317C126.666 15.9865 126.985 15.5327 127.192 14.9702C127.4 14.4077 127.503 13.7983 127.503 13.1421C127.503 12.4858 127.4 11.8743 127.192 11.3076C126.985 10.7408 126.666 10.2827 126.235 9.93327C125.803 9.58384 125.254 9.40912 124.586 9.40912C123.918 9.40912 123.368 9.58384 122.937 9.93327C122.505 10.2827 122.186 10.7408 121.979 11.3076C121.772 11.8743 121.668 12.4858 121.668 13.1421C121.668 13.7983 121.772 14.4077 121.979 14.9702C122.186 15.5327 122.505 15.9865 122.937 16.3317C123.368 16.6769 123.918 16.8495 124.586 16.8495Z" fill="black" fill-opacity="0.5"/>
<path opacity="0.5" fill-rule="evenodd" clip-rule="evenodd" d="M2.20841 7.26552C1.66187 7.4431 1.3771 8.0437 1.5855 8.57924L6.99427 22.4782C7.18654 22.9723 7.73098 23.2304 8.23521 23.0666L14.5955 21H8.5C7.94771 21 7.5 20.5523 7.5 20V5.54618L2.20841 7.26552ZM10.7198 4.50001H12.8039C12.5501 4.18486 12.1201 4.04503 11.7159 4.17636L10.7198 4.50001Z" fill="black"/>
<rect x="9" y="3" width="12" height="16.5" rx="1" fill="black"/>
</svg>
