<svg width="24" height="24" viewBox="0 0 24 24" fill="none" xmlns="http://www.w3.org/2000/svg">
<path d="M19.35 20.125L13.275 14.075C12.775 14.5083 12.1959 14.8458 11.5375 15.0875C10.8792 15.3292 10.1917 15.45 9.47502 15.45C7.77502 15.45 6.33752 14.8625 5.16252 13.6875C3.98752 12.5125 3.40002 11.0833 3.40002 9.4C3.40002 7.73333 3.98752 6.3125 5.16252 5.1375C6.33752 3.9625 7.76669 3.375 9.45002 3.375C11.1334 3.375 12.5625 3.9625 13.7375 5.1375C14.9125 6.3125 15.5 7.73333 15.5 9.4C15.5 10.1 15.3792 10.7833 15.1375 11.45C14.8959 12.1167 14.55 12.7167 14.1 13.25L20.2 19.325C20.3167 19.4417 20.375 19.575 20.375 19.725C20.375 19.875 20.3084 20.0083 20.175 20.125C20.0584 20.2583 19.9167 20.325 19.75 20.325C19.5834 20.325 19.45 20.2583 19.35 20.125ZM9.47502 14.325C10.825 14.325 11.975 13.8458 12.925 12.8875C13.875 11.9292 14.35 10.7667 14.35 9.4C14.35 8.03333 13.875 6.875 12.925 5.925C11.975 4.975 10.825 4.5 9.47502 4.5C8.09169 4.5 6.92502 4.975 5.97502 5.925C5.02502 6.875 4.55002 8.03333 4.55002 9.4C4.55002 10.7667 5.02502 11.9292 5.97502 12.8875C6.92502 13.8458 8.09169 14.325 9.47502 14.325Z" fill="#666666"/>
</svg>
